G04*
G04 #@! TF.GenerationSoftware,Altium Limited,Altium Designer,24.5.2 (23)*
G04*
G04 Layer_Physical_Order=1*
G04 Layer_Color=255*
%FSLAX44Y44*%
%MOMM*%
G71*
G04*
G04 #@! TF.SameCoordinates,7D5F9B9D-7955-483F-804A-6CD0886EC014*
G04*
G04*
G04 #@! TF.FilePolarity,Positive*
G04*
G01*
G75*
%ADD10C,1.2000*%
%ADD11C,1.7000*%
%ADD12C,0.2540*%
%ADD13R,1.7000X1.7000*%
%ADD14C,1.7000*%
%ADD15R,1.7000X1.7000*%
%ADD16R,1.5000X1.5000*%
G04:AMPARAMS|DCode=17|XSize=1.7mm|YSize=1.7mm|CornerRadius=0.425mm|HoleSize=0mm|Usage=FLASHONLY|Rotation=90.000|XOffset=0mm|YOffset=0mm|HoleType=Round|Shape=RoundedRectangle|*
%AMROUNDEDRECTD17*
21,1,1.7000,0.8500,0,0,90.0*
21,1,0.8500,1.7000,0,0,90.0*
1,1,0.8500,0.4250,0.4250*
1,1,0.8500,0.4250,-0.4250*
1,1,0.8500,-0.4250,-0.4250*
1,1,0.8500,-0.4250,0.4250*
%
%ADD17ROUNDEDRECTD17*%
%ADD18C,1.2700*%
D10*
X585315Y1099977D02*
X586031Y1100692D01*
X561340Y1099020D02*
X562297Y1099977D01*
X586031Y1100692D02*
X586220D01*
X562297Y1099977D02*
X585315D01*
X478757Y1220470D02*
X486090Y1213137D01*
X323850Y1078230D02*
Y1213441D01*
X330879Y1220470D01*
X486090Y1209137D02*
Y1213137D01*
X330879Y1220470D02*
X478757D01*
X308960Y905349D02*
Y1219113D01*
X324857Y1235010D01*
X486090Y1209137D02*
X520490Y1174737D01*
X500350Y1235010D02*
X536340Y1199020D01*
X324857Y1235010D02*
X500350D01*
X403860Y999005D02*
X503875Y1099020D01*
X536340D01*
X389190Y863190D02*
Y1004897D01*
X374650Y1010920D02*
X511793Y1148063D01*
X535383D01*
X374650Y869212D02*
Y1010920D01*
X389190Y1004897D02*
X508313Y1124020D01*
X536340D01*
X403860Y695960D02*
Y999005D01*
X535383Y1148063D02*
X536340Y1149020D01*
X323850Y918210D02*
X349250Y892810D01*
X323850Y918210D02*
Y1078230D01*
X349250Y864870D02*
Y892810D01*
X308960Y905349D02*
X325120Y889189D01*
Y889000D02*
Y889189D01*
X360150Y652250D02*
X403860Y695960D01*
X342559Y652250D02*
X360150D01*
X326572Y627730D02*
X356193D01*
X419343Y690880D02*
X503163D01*
X356193Y627730D02*
X419343Y690880D01*
X332929Y642620D02*
X342559Y652250D01*
X505460Y668020D02*
X567690D01*
X497840Y675640D02*
X505460Y668020D01*
X584402Y1172082D02*
X593798D01*
X561340Y1149020D02*
X584402Y1172082D01*
X593798D02*
X603780Y1182063D01*
X605790Y1193281D02*
Y1193470D01*
X603780Y1191271D02*
X605790Y1193281D01*
X603780Y1182063D02*
Y1191271D01*
X510433Y683610D02*
X568610D01*
X503163Y690880D02*
X510433Y683610D01*
X434340Y675640D02*
X497840D01*
X504190Y1049020D02*
X536340D01*
X332740Y642620D02*
X332929D01*
X535622Y1073303D02*
X536340Y1074020D01*
X504190Y1073150D02*
X504342Y1073303D01*
X535622D01*
X508134Y753244D02*
Y770814D01*
X536340Y799020D01*
X508000Y753110D02*
X508134Y753244D01*
X536286Y823966D02*
X536340Y824020D01*
X491490Y805180D02*
X510276Y823966D01*
X536286D01*
X511753Y848303D02*
X535622D01*
X473710Y810260D02*
X511753Y848303D01*
X535622D02*
X536340Y849020D01*
X317850Y636452D02*
X326572Y627730D01*
X317850Y791850D02*
X389190Y863190D01*
X317850Y636452D02*
Y791850D01*
X351258Y845820D02*
X374650Y869212D01*
X309880Y845820D02*
X351258D01*
X535800Y1173480D02*
X536340Y1174020D01*
X520490Y1174737D02*
X535622D01*
X536340Y1174020D01*
X348580Y746160D02*
X349250Y745490D01*
X535622Y724737D02*
X536340Y724020D01*
X586670Y1124020D02*
X586740Y1123950D01*
X561340Y1124020D02*
X586670D01*
D11*
X576842Y1199020D02*
X586740Y1189122D01*
X561340Y1199020D02*
X576842D01*
D12*
X426720Y885438D02*
Y895595D01*
X431798Y900673D01*
X436877Y895595D01*
Y885438D01*
Y893056D01*
X426720D01*
X441955Y885438D02*
Y895595D01*
X444494D01*
X447033Y893056D01*
Y885438D01*
Y893056D01*
X449573Y895595D01*
X452112Y893056D01*
Y885438D01*
X459729Y895595D02*
X464808D01*
X467347Y893056D01*
Y885438D01*
X459729D01*
X457190Y887977D01*
X459729Y890516D01*
X467347D01*
X472425Y885438D02*
X480043D01*
X482582Y887977D01*
X480043Y890516D01*
X474964D01*
X472425Y893056D01*
X474964Y895595D01*
X482582D01*
X487660Y885438D02*
X495278D01*
X497817Y887977D01*
X495278Y890516D01*
X490200D01*
X487660Y893056D01*
X490200Y895595D01*
X497817D01*
X426720Y876295D02*
Y861060D01*
X436877D01*
X444494Y871217D02*
X449573D01*
X452112Y868678D01*
Y861060D01*
X444494D01*
X441955Y863599D01*
X444494Y866138D01*
X452112D01*
X457190Y876295D02*
Y861060D01*
X464808D01*
X467347Y863599D01*
Y866138D01*
Y868678D01*
X464808Y871217D01*
X457190D01*
X599440Y1079495D02*
Y1064260D01*
X609597D01*
X614675D02*
X619753D01*
X617214D01*
Y1074417D01*
X614675D01*
X637528Y1079495D02*
Y1064260D01*
X629910D01*
X627371Y1066799D01*
Y1071878D01*
X629910Y1074417D01*
X637528D01*
X601977Y698496D02*
X599437Y701035D01*
X594359D01*
X591820Y698496D01*
Y695957D01*
X594359Y693418D01*
X599437D01*
X601977Y690878D01*
Y688339D01*
X599437Y685800D01*
X594359D01*
X591820Y688339D01*
X609594Y685800D02*
X614673D01*
X617212Y688339D01*
Y693418D01*
X614673Y695957D01*
X609594D01*
X607055Y693418D01*
Y688339D01*
X609594Y685800D01*
X622290D02*
Y695957D01*
X629908D01*
X632447Y693418D01*
Y685800D01*
X501650Y454655D02*
Y441959D01*
X504189Y439420D01*
X509268D01*
X511807Y441959D01*
Y454655D01*
X502920Y494030D02*
Y509265D01*
X510537D01*
X513077Y506726D01*
Y501647D01*
X510537Y499108D01*
X502920D01*
X507998D02*
X513077Y494030D01*
X500380Y568955D02*
Y553720D01*
X510537D01*
X389885Y792480D02*
Y787402D01*
Y789941D01*
X374650D01*
Y792480D01*
Y787402D01*
Y779784D02*
X389885D01*
X384807Y774706D01*
X389885Y769627D01*
X374650D01*
X389885Y764549D02*
X377189D01*
X374650Y762010D01*
Y756932D01*
X377189Y754392D01*
X389885D01*
X388615Y1139190D02*
X373380D01*
Y1131572D01*
X375919Y1129033D01*
X378458D01*
X380998Y1131572D01*
Y1139190D01*
Y1131572D01*
X383537Y1129033D01*
X386076D01*
X388615Y1131572D01*
Y1139190D01*
X383537Y1121416D02*
Y1116337D01*
X380998Y1113798D01*
X373380D01*
Y1121416D01*
X375919Y1123955D01*
X378458Y1121416D01*
Y1113798D01*
X383537Y1108720D02*
X373380D01*
X378458D01*
X380998Y1106181D01*
X383537Y1103642D01*
Y1101102D01*
X373380Y1090946D02*
Y1085867D01*
X375919Y1083328D01*
X380998D01*
X383537Y1085867D01*
Y1090946D01*
X380998Y1093485D01*
X375919D01*
X373380Y1090946D01*
X440687Y1135376D02*
X438148Y1137915D01*
X433069D01*
X430530Y1135376D01*
Y1132837D01*
X433069Y1130297D01*
X438148D01*
X440687Y1127758D01*
Y1125219D01*
X438148Y1122680D01*
X433069D01*
X430530Y1125219D01*
X453383Y1122680D02*
X448304D01*
X445765Y1125219D01*
Y1130297D01*
X448304Y1132837D01*
X453383D01*
X455922Y1130297D01*
Y1127758D01*
X445765D01*
X461000Y1132837D02*
Y1122680D01*
Y1127758D01*
X463539Y1130297D01*
X466078Y1132837D01*
X468618D01*
D13*
X349250Y770890D02*
D03*
X623570Y1164270D02*
D03*
X469050Y1201100D02*
D03*
X492760Y934170D02*
D03*
X459740Y1024170D02*
D03*
X536340Y1199020D02*
D03*
X607910Y726920D02*
D03*
D14*
X349250Y745490D02*
D03*
Y720090D02*
D03*
Y694690D02*
D03*
Y669290D02*
D03*
X623570Y1104270D02*
D03*
Y1144270D02*
D03*
Y1124270D02*
D03*
X469050Y1181100D02*
D03*
Y1161100D02*
D03*
X452435Y508635D02*
D03*
X472435D02*
D03*
X471800Y452120D02*
D03*
X451800D02*
D03*
X459740Y934170D02*
D03*
X492760Y1024170D02*
D03*
X561340Y1149020D02*
D03*
Y1199020D02*
D03*
X536340Y1174020D02*
D03*
X561340D02*
D03*
X536340Y1149020D02*
D03*
Y1124020D02*
D03*
X561340D02*
D03*
X536340Y1099020D02*
D03*
X561340D02*
D03*
X536340Y1074020D02*
D03*
X561340D02*
D03*
X536340Y1049020D02*
D03*
X561340D02*
D03*
X536340Y1024020D02*
D03*
X561340D02*
D03*
X536340Y999020D02*
D03*
X561340D02*
D03*
X536340Y974020D02*
D03*
X561340D02*
D03*
X536340Y949020D02*
D03*
X561340D02*
D03*
X536340Y924020D02*
D03*
X561340D02*
D03*
X536340Y899020D02*
D03*
X561340D02*
D03*
X536340Y874020D02*
D03*
X561340D02*
D03*
X536340Y849020D02*
D03*
X561340D02*
D03*
X536340Y824020D02*
D03*
X561340D02*
D03*
X536340Y799020D02*
D03*
X561340D02*
D03*
X536340Y774020D02*
D03*
X561340D02*
D03*
X536340Y749020D02*
D03*
X561340D02*
D03*
X536340Y724020D02*
D03*
X561340D02*
D03*
X607910Y786920D02*
D03*
X367030Y1201420D02*
D03*
X359730Y554990D02*
D03*
Y497840D02*
D03*
Y440690D02*
D03*
X607910Y746920D02*
D03*
Y766920D02*
D03*
X473070Y566420D02*
D03*
X453070D02*
D03*
X349250Y977900D02*
D03*
Y1054100D02*
D03*
Y1003300D02*
D03*
Y952500D02*
D03*
Y1028700D02*
D03*
Y1079500D02*
D03*
Y1104900D02*
D03*
D15*
X432435Y508635D02*
D03*
X431800Y452120D02*
D03*
X379730Y554990D02*
D03*
X347030Y1201420D02*
D03*
X379730Y497840D02*
D03*
X433070Y566420D02*
D03*
D16*
X379730Y440690D02*
D03*
D17*
X349250Y927100D02*
D03*
D18*
X586220Y1100692D02*
D03*
X325120Y889000D02*
D03*
X567690Y668020D02*
D03*
X586740Y1189122D02*
D03*
X568610Y683610D02*
D03*
X434340Y675640D02*
D03*
X332740Y642620D02*
D03*
X605790Y1193470D02*
D03*
X504190Y1073150D02*
D03*
X508000Y753110D02*
D03*
X491490Y805180D02*
D03*
X473710Y810260D02*
D03*
X504190Y1049020D02*
D03*
X309880Y845820D02*
D03*
X349250Y864870D02*
D03*
X323850Y1078230D02*
D03*
X586740Y1123950D02*
D03*
M02*
