M48
;Layer_Color=9474304
;FILE_FORMAT=4:4
METRIC,LZ
;TYPE=PLATED
T01F00S00C0.7000
T02F00S00C1.0500
%
T01
X0075184Y0064655
X0075057Y0066421
Y0071247
X0075078Y0074655
X00745267Y00811543
X0072771Y0099695
X0075819Y0105918
X0073914Y0112522
T02
X0081026Y0064655
Y0067155
Y0069655
Y0072155
Y0074655
Y0077155
X0078526
Y0074655
Y0072155
Y0069655
Y0067155
Y0064655
X007058Y0066463
X006858
X006658
X00665991Y00728009
X00685991
X00705991
X0070707Y00790551
X0068707
X0066707
X0066834Y0085767
X0068834
X0070834
X0078526Y0084655
Y0087155
Y0089655
Y0092155
Y0094655
Y0097155
Y0099655
Y0102155
Y0104655
Y0107155
Y0109655
Y0112155
X0070612Y0112268
X0068612
X0062992
X0060992
X0066961Y0104182
X0068961
X0070961
X0078526Y0082155
Y0079655
X0081026
Y0082155
Y0084655
Y0087155
Y0089655
Y0092155
Y0094655
Y0097155
Y0099655
Y0102155
Y0104655
Y0107155
Y0109655
Y0112155
M30
