G04*
G04 #@! TF.GenerationSoftware,Altium Limited,Altium Designer,24.5.2 (23)*
G04*
G04 Layer_Physical_Order=2*
G04 Layer_Color=16711680*
%FSLAX44Y44*%
%MOMM*%
G71*
G04*
G04 #@! TF.SameCoordinates,7D5F9B9D-7955-483F-804A-6CD0886EC014*
G04*
G04*
G04 #@! TF.FilePolarity,Positive*
G04*
G01*
G75*
%ADD10C,1.2000*%
%ADD11C,1.7000*%
%ADD13R,1.7000X1.7000*%
%ADD14C,1.7000*%
%ADD15R,1.7000X1.7000*%
%ADD16R,1.5000X1.5000*%
G04:AMPARAMS|DCode=17|XSize=1.7mm|YSize=1.7mm|CornerRadius=0.425mm|HoleSize=0mm|Usage=FLASHONLY|Rotation=90.000|XOffset=0mm|YOffset=0mm|HoleType=Round|Shape=RoundedRectangle|*
%AMROUNDEDRECTD17*
21,1,1.7000,0.8500,0,0,90.0*
21,1,0.8500,1.7000,0,0,90.0*
1,1,0.8500,0.4250,0.4250*
1,1,0.8500,0.4250,-0.4250*
1,1,0.8500,-0.4250,-0.4250*
1,1,0.8500,-0.4250,0.4250*
%
%ADD17ROUNDEDRECTD17*%
%ADD18C,1.2700*%
D10*
X330200Y760863D02*
X337213Y753850D01*
X309880Y845631D02*
X330200Y825311D01*
Y760863D02*
Y825311D01*
X309880Y845631D02*
Y962848D01*
X339537Y753850D02*
X347897Y745490D01*
X337213Y753850D02*
X339537D01*
X347897Y745490D02*
X349250D01*
X586220Y1100692D02*
X586409D01*
X589987Y1104270D02*
X623830D01*
X586409Y1100692D02*
X589987Y1104270D01*
X623830D02*
X623990Y1104110D01*
X486410Y1181100D02*
X519080Y1148430D01*
X469050Y1181100D02*
X486410D01*
X519080Y882520D02*
Y1148430D01*
X324904Y913406D02*
Y928488D01*
Y913406D02*
X324986Y913323D01*
Y889134D02*
Y913323D01*
Y889134D02*
X325120Y889000D01*
X309880Y962848D02*
X349250Y1002218D01*
X324904Y928488D02*
X348916Y952500D01*
X328930Y646619D02*
Y698823D01*
Y646619D02*
X332740Y642809D01*
Y642620D02*
Y642809D01*
X328930Y698823D02*
X349250Y719143D01*
X356557Y695647D02*
X368300Y707390D01*
X350207Y695647D02*
X356557D01*
X349250Y694690D02*
X350207Y695647D01*
X368300Y707390D02*
Y933784D01*
X366290Y935794D02*
Y936648D01*
X358779Y944140D02*
X358798D01*
X366290Y935794D02*
X368300Y933784D01*
X358798Y944140D02*
X366290Y936648D01*
X350420Y952500D02*
X358779Y944140D01*
X348916Y952500D02*
X350420D01*
X567690Y668020D02*
X603493D01*
X649014Y713542D01*
X434340Y675640D02*
Y908770D01*
X605790Y1193470D02*
X605924Y1193336D01*
X640030Y1130754D02*
X642530D01*
X634474Y719564D02*
Y729506D01*
X598654Y683744D02*
X634474Y719564D01*
X617634Y746346D02*
X634474Y729506D01*
X568744Y683744D02*
X598654D01*
X618197Y766346D02*
X649014Y735528D01*
Y713542D02*
Y735528D01*
X608484Y746346D02*
X617634D01*
X608484Y766346D02*
X618197D01*
X568610Y683610D02*
X568744Y683744D01*
X471800Y452120D02*
X512512Y492832D01*
X508000Y693001D02*
X512512Y688489D01*
Y492832D02*
Y688489D01*
X451800Y452120D02*
X451991Y451929D01*
X431300Y451620D02*
X431800Y452120D01*
X607910Y813650D02*
X609600Y815340D01*
X468890Y1201260D02*
X469050Y1201100D01*
X367030Y1201420D02*
X367190Y1201260D01*
X431800Y508000D02*
X432435Y508635D01*
X434340Y908770D02*
X459740Y934170D01*
X453070Y816510D02*
X519080Y882520D01*
X504190Y1073150D02*
Y1125960D01*
X508000Y693001D02*
Y753110D01*
X472435Y508635D02*
X492151Y528351D01*
X491490Y667001D02*
X492151Y666340D01*
Y528351D02*
Y666340D01*
X491490Y667001D02*
Y805180D01*
X473070Y809431D02*
X473710Y810071D01*
X473070Y566420D02*
Y809431D01*
X473710Y810071D02*
Y810260D01*
X349250Y719143D02*
Y720090D01*
X504056Y1035872D02*
Y1048886D01*
X469050Y1161100D02*
X504190Y1125960D01*
X504056Y1048886D02*
X504190Y1049020D01*
X349250Y770890D02*
Y864870D01*
X607910Y766920D02*
X608484Y766346D01*
X607910Y746920D02*
X608484Y746346D01*
X453070Y566420D02*
Y816510D01*
X324039Y1078230D02*
X348169Y1054100D01*
X323850Y1078230D02*
X324039D01*
X349250Y1002218D02*
Y1003300D01*
X348169Y1054100D02*
X349250D01*
X492760Y1024170D02*
Y1024576D01*
X504056Y1035872D01*
X459740Y1024170D02*
X492760D01*
X623830Y1144270D02*
X623990Y1144110D01*
X586740Y1123950D02*
X586820Y1124030D01*
X623910D02*
X623990Y1124110D01*
X586820Y1124030D02*
X623910D01*
D11*
X332740Y491490D02*
Y610870D01*
X307340Y636270D02*
X332740Y610870D01*
Y491490D02*
X354965Y469265D01*
X307340Y636270D02*
Y760730D01*
X290830Y777240D02*
X307340Y760730D01*
X290830Y777240D02*
Y1076960D01*
X607910Y813650D02*
Y1030820D01*
X665480Y1088390D01*
X631496Y1082040D02*
X645160Y1095704D01*
X665480Y1088390D02*
Y1139190D01*
X596698Y1082040D02*
X631496D01*
X645160Y1095704D02*
Y1130574D01*
X586740Y740456D02*
Y1072082D01*
X596698Y1082040D01*
X586740Y740456D02*
X600276Y726920D01*
X607910Y786920D02*
Y813650D01*
X402402Y956310D02*
X470620D01*
X386080Y939988D02*
X402402Y956310D01*
X470620D02*
X492760Y934170D01*
X382830Y943238D02*
Y982420D01*
X363220Y654050D02*
X386080Y676910D01*
Y939988D01*
X382830Y943238D02*
X386080Y939988D01*
X373380Y991870D02*
X382830Y982420D01*
X363220Y610870D02*
X403860Y570230D01*
Y417830D02*
Y570230D01*
X432895Y509095D02*
Y537210D01*
X433530Y537845D02*
Y565960D01*
X432435Y508635D02*
X432895Y509095D01*
Y537210D02*
X433530Y537845D01*
X433070Y566420D02*
X433530Y565960D01*
X451991Y435739D02*
Y451929D01*
Y435739D02*
X464763Y422967D01*
X478847D02*
X534670Y478790D01*
X464763Y422967D02*
X478847D01*
X640560Y1164110D02*
X665480Y1139190D01*
X642530Y1133204D02*
X645160Y1130574D01*
X631624Y1144110D02*
X642530Y1133204D01*
X623990Y1164110D02*
X640560D01*
X623990Y1144110D02*
X631624D01*
X600276Y726920D02*
X607910D01*
X373380Y1201260D02*
X468890D01*
X367190D02*
X373380D01*
X367190D02*
X369570Y1198880D01*
Y988060D02*
Y1198880D01*
X349250Y977900D02*
X359410D01*
X373380Y991870D01*
X605924Y1182176D02*
Y1193336D01*
Y1182176D02*
X623990Y1164110D01*
X605790Y1193470D02*
Y1210310D01*
X589280Y1226820D02*
X605790Y1210310D01*
X494770Y1226820D02*
X589280D01*
X586740Y1155700D02*
Y1189122D01*
X583300Y702310D02*
X607910Y726920D01*
X534670Y702310D02*
X583300D01*
X534670Y478790D02*
Y702310D01*
X354965Y469265D02*
X379730D01*
X290830Y1076960D02*
X347030Y1133160D01*
Y1201420D01*
X359730Y430077D02*
X371977Y417830D01*
X359730Y430077D02*
Y440690D01*
X431300Y445270D02*
Y451620D01*
X371977Y417830D02*
X403860D01*
X431300Y445270D01*
X359730Y497840D02*
Y554990D01*
Y605861D01*
X363220D02*
Y654050D01*
X586740Y1155700D02*
X598170Y1144270D01*
X469050Y1201100D02*
X494770Y1226820D01*
X431800Y452120D02*
Y508000D01*
X379730Y469265D02*
Y497840D01*
Y440690D02*
Y469265D01*
Y497840D02*
Y554990D01*
X598170Y1144270D02*
X623830D01*
D13*
X349250Y770890D02*
D03*
X623570Y1164270D02*
D03*
X469050Y1201100D02*
D03*
X492760Y934170D02*
D03*
X459740Y1024170D02*
D03*
X536340Y1199020D02*
D03*
X607910Y726920D02*
D03*
D14*
X349250Y745490D02*
D03*
Y720090D02*
D03*
Y694690D02*
D03*
Y669290D02*
D03*
X623570Y1104270D02*
D03*
Y1144270D02*
D03*
Y1124270D02*
D03*
X469050Y1181100D02*
D03*
Y1161100D02*
D03*
X452435Y508635D02*
D03*
X472435D02*
D03*
X471800Y452120D02*
D03*
X451800D02*
D03*
X459740Y934170D02*
D03*
X492760Y1024170D02*
D03*
X561340Y1149020D02*
D03*
Y1199020D02*
D03*
X536340Y1174020D02*
D03*
X561340D02*
D03*
X536340Y1149020D02*
D03*
Y1124020D02*
D03*
X561340D02*
D03*
X536340Y1099020D02*
D03*
X561340D02*
D03*
X536340Y1074020D02*
D03*
X561340D02*
D03*
X536340Y1049020D02*
D03*
X561340D02*
D03*
X536340Y1024020D02*
D03*
X561340D02*
D03*
X536340Y999020D02*
D03*
X561340D02*
D03*
X536340Y974020D02*
D03*
X561340D02*
D03*
X536340Y949020D02*
D03*
X561340D02*
D03*
X536340Y924020D02*
D03*
X561340D02*
D03*
X536340Y899020D02*
D03*
X561340D02*
D03*
X536340Y874020D02*
D03*
X561340D02*
D03*
X536340Y849020D02*
D03*
X561340D02*
D03*
X536340Y824020D02*
D03*
X561340D02*
D03*
X536340Y799020D02*
D03*
X561340D02*
D03*
X536340Y774020D02*
D03*
X561340D02*
D03*
X536340Y749020D02*
D03*
X561340D02*
D03*
X536340Y724020D02*
D03*
X561340D02*
D03*
X607910Y786920D02*
D03*
X367030Y1201420D02*
D03*
X359730Y554990D02*
D03*
Y497840D02*
D03*
Y440690D02*
D03*
X607910Y746920D02*
D03*
Y766920D02*
D03*
X473070Y566420D02*
D03*
X453070D02*
D03*
X349250Y977900D02*
D03*
Y1054100D02*
D03*
Y1003300D02*
D03*
Y952500D02*
D03*
Y1028700D02*
D03*
Y1079500D02*
D03*
Y1104900D02*
D03*
D15*
X432435Y508635D02*
D03*
X431800Y452120D02*
D03*
X379730Y554990D02*
D03*
X347030Y1201420D02*
D03*
X379730Y497840D02*
D03*
X433070Y566420D02*
D03*
D16*
X379730Y440690D02*
D03*
D17*
X349250Y927100D02*
D03*
D18*
X586220Y1100692D02*
D03*
X325120Y889000D02*
D03*
X567690Y668020D02*
D03*
X586740Y1189122D02*
D03*
X568610Y683610D02*
D03*
X434340Y675640D02*
D03*
X332740Y642620D02*
D03*
X605790Y1193470D02*
D03*
X504190Y1073150D02*
D03*
X508000Y753110D02*
D03*
X491490Y805180D02*
D03*
X473710Y810260D02*
D03*
X504190Y1049020D02*
D03*
X309880Y845820D02*
D03*
X349250Y864870D02*
D03*
X323850Y1078230D02*
D03*
X586740Y1123950D02*
D03*
M02*
